<mxfile host="app.diagrams.net" agent="Mozilla/5.0 (Windows NT 10.0; Win64; x64) AppleWebKit/537.36 (KHTML, like Gecko) Chrome/129.0.0.0 Safari/537.36" version="24.7.17" pages="2">
  <diagram name="Allgemein" id="QCjyt__RwV8NXWA_p6mI">
    <mxGraphModel dx="819" dy="441" grid="1" gridSize="10" guides="1" tooltips="1" connect="1" arrows="1" fold="1" page="1" pageScale="1" pageWidth="1169" pageHeight="827" math="0" shadow="0">
      <root>
        <mxCell id="0" />
        <mxCell id="1" parent="0" />
        <mxCell id="k_TYnKEjfZYxkEJ2RRev-2" value="" style="rounded=0;whiteSpace=wrap;html=1;fillColor=#fff2cc;strokeColor=#d6b656;" parent="1" vertex="1">
          <mxGeometry x="80" y="200" width="520" height="400" as="geometry" />
        </mxCell>
        <mxCell id="k_TYnKEjfZYxkEJ2RRev-3" value="" style="rounded=0;whiteSpace=wrap;html=1;fillColor=#f5f5f5;strokeColor=#666666;fontColor=#333333;" parent="1" vertex="1">
          <mxGeometry x="680" y="200" width="260" height="400" as="geometry" />
        </mxCell>
        <mxCell id="k_TYnKEjfZYxkEJ2RRev-4" value="" style="rounded=0;whiteSpace=wrap;html=1;fillColor=#ffe6cc;strokeColor=#d79b00;" parent="1" vertex="1">
          <mxGeometry x="90" y="320" width="220" height="270" as="geometry" />
        </mxCell>
        <mxCell id="k_TYnKEjfZYxkEJ2RRev-5" value="" style="rounded=0;whiteSpace=wrap;html=1;fillColor=#f8cecc;strokeColor=#b85450;" parent="1" vertex="1">
          <mxGeometry x="352" y="320" width="190" height="270" as="geometry" />
        </mxCell>
        <mxCell id="k_TYnKEjfZYxkEJ2RRev-6" value="Software&amp;nbsp;" style="text;html=1;align=left;verticalAlign=bottom;whiteSpace=wrap;rounded=0;" parent="1" vertex="1">
          <mxGeometry x="80" y="170" width="130" height="30" as="geometry" />
        </mxCell>
        <mxCell id="MCu4_P9n3zfeMIbY9nSo-5" style="edgeStyle=orthogonalEdgeStyle;rounded=0;orthogonalLoop=1;jettySize=auto;html=1;" edge="1" parent="1" source="k_TYnKEjfZYxkEJ2RRev-28" target="MCu4_P9n3zfeMIbY9nSo-1">
          <mxGeometry relative="1" as="geometry" />
        </mxCell>
        <mxCell id="MCu4_P9n3zfeMIbY9nSo-4" style="edgeStyle=orthogonalEdgeStyle;rounded=0;orthogonalLoop=1;jettySize=auto;html=1;" edge="1" parent="1" source="k_TYnKEjfZYxkEJ2RRev-31" target="k_TYnKEjfZYxkEJ2RRev-28">
          <mxGeometry relative="1" as="geometry" />
        </mxCell>
        <mxCell id="k_TYnKEjfZYxkEJ2RRev-7" value="Hardware" style="text;html=1;align=left;verticalAlign=bottom;whiteSpace=wrap;rounded=0;" parent="1" vertex="1">
          <mxGeometry x="680" y="170" width="120" height="30" as="geometry" />
        </mxCell>
        <mxCell id="k_TYnKEjfZYxkEJ2RRev-8" value="Prozessmodell" style="text;html=1;align=left;verticalAlign=bottom;whiteSpace=wrap;rounded=0;rotation=0;horizontal=1;" parent="1" vertex="1">
          <mxGeometry x="90" y="290" width="80" height="30" as="geometry" />
        </mxCell>
        <mxCell id="k_TYnKEjfZYxkEJ2RRev-9" value="Anlagenmodell" style="text;html=1;align=left;verticalAlign=bottom;whiteSpace=wrap;rounded=0;" parent="1" vertex="1">
          <mxGeometry x="352" y="290" width="120" height="30" as="geometry" />
        </mxCell>
        <mxCell id="k_TYnKEjfZYxkEJ2RRev-23" style="edgeStyle=orthogonalEdgeStyle;rounded=0;orthogonalLoop=1;jettySize=auto;html=1;entryX=1;entryY=0.25;entryDx=0;entryDy=0;" parent="1" source="k_TYnKEjfZYxkEJ2RRev-11" target="k_TYnKEjfZYxkEJ2RRev-16" edge="1">
          <mxGeometry relative="1" as="geometry">
            <Array as="points">
              <mxPoint x="290" y="350" />
              <mxPoint x="290" y="532" />
            </Array>
          </mxGeometry>
        </mxCell>
        <mxCell id="k_TYnKEjfZYxkEJ2RRev-73" style="edgeStyle=orthogonalEdgeStyle;rounded=0;orthogonalLoop=1;jettySize=auto;html=1;entryX=0.5;entryY=0;entryDx=0;entryDy=0;" parent="1" source="k_TYnKEjfZYxkEJ2RRev-11" target="k_TYnKEjfZYxkEJ2RRev-12" edge="1">
          <mxGeometry relative="1" as="geometry" />
        </mxCell>
        <mxCell id="k_TYnKEjfZYxkEJ2RRev-75" style="edgeStyle=orthogonalEdgeStyle;rounded=0;orthogonalLoop=1;jettySize=auto;html=1;" parent="1" source="k_TYnKEjfZYxkEJ2RRev-12" target="k_TYnKEjfZYxkEJ2RRev-18" edge="1">
          <mxGeometry relative="1" as="geometry" />
        </mxCell>
        <mxCell id="k_TYnKEjfZYxkEJ2RRev-11" value="Arbeitsplan" style="rounded=0;whiteSpace=wrap;html=1;fillColor=#FFD4A8;strokeColor=#d79b00;" parent="1" vertex="1">
          <mxGeometry x="100" y="330" width="150" height="40" as="geometry" />
        </mxCell>
        <mxCell id="k_TYnKEjfZYxkEJ2RRev-15" value="" style="rounded=0;whiteSpace=wrap;html=1;fillColor=#FFD4A8;strokeColor=#d79b00;" parent="1" vertex="1">
          <mxGeometry x="112" y="426" width="150" height="40" as="geometry" />
        </mxCell>
        <mxCell id="k_TYnKEjfZYxkEJ2RRev-14" value="" style="rounded=0;whiteSpace=wrap;html=1;fillColor=#FFD4A8;strokeColor=#d79b00;" parent="1" vertex="1">
          <mxGeometry x="106" y="420" width="150" height="40" as="geometry" />
        </mxCell>
        <mxCell id="k_TYnKEjfZYxkEJ2RRev-12" value="Sequenz" style="rounded=0;whiteSpace=wrap;html=1;fillColor=#FFD4A8;strokeColor=#d79b00;" parent="1" vertex="1">
          <mxGeometry x="100" y="414" width="150" height="40" as="geometry" />
        </mxCell>
        <mxCell id="k_TYnKEjfZYxkEJ2RRev-70" style="edgeStyle=orthogonalEdgeStyle;rounded=0;orthogonalLoop=1;jettySize=auto;html=1;entryX=0;entryY=0.5;entryDx=0;entryDy=0;endArrow=none;endFill=0;strokeWidth=2;" parent="1" source="k_TYnKEjfZYxkEJ2RRev-16" target="k_TYnKEjfZYxkEJ2RRev-28" edge="1">
          <mxGeometry relative="1" as="geometry">
            <Array as="points">
              <mxPoint x="320" y="542" />
              <mxPoint x="320" y="440" />
            </Array>
          </mxGeometry>
        </mxCell>
        <mxCell id="k_TYnKEjfZYxkEJ2RRev-16" value="" style="rounded=0;whiteSpace=wrap;html=1;fillColor=#FFD4A8;strokeColor=#d79b00;" parent="1" vertex="1">
          <mxGeometry x="112" y="522" width="150" height="40" as="geometry" />
        </mxCell>
        <mxCell id="k_TYnKEjfZYxkEJ2RRev-17" value="" style="rounded=0;whiteSpace=wrap;html=1;fillColor=#FFD4A8;strokeColor=#d79b00;" parent="1" vertex="1">
          <mxGeometry x="106" y="516" width="150" height="40" as="geometry" />
        </mxCell>
        <mxCell id="k_TYnKEjfZYxkEJ2RRev-18" value="Skill" style="rounded=0;whiteSpace=wrap;html=1;fillColor=#FFD4A8;strokeColor=#d79b00;" parent="1" vertex="1">
          <mxGeometry x="100" y="510" width="150" height="40" as="geometry" />
        </mxCell>
        <mxCell id="k_TYnKEjfZYxkEJ2RRev-26" value="" style="rounded=0;whiteSpace=wrap;html=1;fillColor=#F18E8E;strokeColor=#b85450;" parent="1" vertex="1">
          <mxGeometry x="378" y="432" width="150" height="40" as="geometry" />
        </mxCell>
        <mxCell id="k_TYnKEjfZYxkEJ2RRev-27" value="" style="rounded=0;whiteSpace=wrap;html=1;fillColor=#F18E8E;strokeColor=#b85450;" parent="1" vertex="1">
          <mxGeometry x="372" y="426" width="150" height="40" as="geometry" />
        </mxCell>
        <mxCell id="k_TYnKEjfZYxkEJ2RRev-28" value="Objekte" style="rounded=0;whiteSpace=wrap;html=1;fillColor=#F18E8E;strokeColor=#b85450;" parent="1" vertex="1">
          <mxGeometry x="366" y="420" width="150" height="40" as="geometry" />
        </mxCell>
        <mxCell id="k_TYnKEjfZYxkEJ2RRev-29" value="" style="rounded=0;whiteSpace=wrap;html=1;fillColor=#F18E8E;strokeColor=#b85450;" parent="1" vertex="1">
          <mxGeometry x="378" y="342" width="150" height="40" as="geometry" />
        </mxCell>
        <mxCell id="k_TYnKEjfZYxkEJ2RRev-30" value="" style="rounded=0;whiteSpace=wrap;html=1;fillColor=#F18E8E;strokeColor=#b85450;" parent="1" vertex="1">
          <mxGeometry x="372" y="336" width="150" height="40" as="geometry" />
        </mxCell>
        <mxCell id="k_TYnKEjfZYxkEJ2RRev-31" value="Objektklassen" style="rounded=0;whiteSpace=wrap;html=1;fillColor=#F18E8E;strokeColor=#b85450;" parent="1" vertex="1">
          <mxGeometry x="366" y="330" width="150" height="40" as="geometry" />
        </mxCell>
        <mxCell id="k_TYnKEjfZYxkEJ2RRev-48" value="" style="group" parent="1" vertex="1" connectable="0">
          <mxGeometry x="699" y="400" width="230" height="180" as="geometry" />
        </mxCell>
        <mxCell id="k_TYnKEjfZYxkEJ2RRev-35" value="" style="rounded=0;whiteSpace=wrap;html=1;" parent="k_TYnKEjfZYxkEJ2RRev-48" vertex="1">
          <mxGeometry y="60" width="230" height="120" as="geometry" />
        </mxCell>
        <mxCell id="k_TYnKEjfZYxkEJ2RRev-36" value="Robotersystem" style="text;html=1;align=left;verticalAlign=bottom;whiteSpace=wrap;rounded=0;" parent="k_TYnKEjfZYxkEJ2RRev-48" vertex="1">
          <mxGeometry y="30" width="120" height="30" as="geometry" />
        </mxCell>
        <mxCell id="k_TYnKEjfZYxkEJ2RRev-39" value="Roboter" style="whiteSpace=wrap;html=1;aspect=fixed;fillColor=#dae8fc;strokeColor=#6c8ebf;" parent="k_TYnKEjfZYxkEJ2RRev-48" vertex="1">
          <mxGeometry x="10" y="112" width="60" height="60" as="geometry" />
        </mxCell>
        <mxCell id="MCu4_P9n3zfeMIbY9nSo-3" style="edgeStyle=orthogonalEdgeStyle;rounded=0;orthogonalLoop=1;jettySize=auto;html=1;endArrow=oval;endFill=1;" edge="1" parent="k_TYnKEjfZYxkEJ2RRev-48" source="k_TYnKEjfZYxkEJ2RRev-40">
          <mxGeometry relative="1" as="geometry">
            <mxPoint x="-59" y="50" as="targetPoint" />
          </mxGeometry>
        </mxCell>
        <mxCell id="k_TYnKEjfZYxkEJ2RRev-40" value="Kontroller" style="rounded=0;whiteSpace=wrap;html=1;fillColor=#dae8fc;strokeColor=#6c8ebf;" parent="k_TYnKEjfZYxkEJ2RRev-48" vertex="1">
          <mxGeometry x="10" y="70" width="210" height="31" as="geometry" />
        </mxCell>
        <mxCell id="k_TYnKEjfZYxkEJ2RRev-41" value="Greifer" style="whiteSpace=wrap;html=1;aspect=fixed;fillColor=#dae8fc;strokeColor=#6c8ebf;" parent="k_TYnKEjfZYxkEJ2RRev-48" vertex="1">
          <mxGeometry x="85" y="112" width="60" height="60" as="geometry" />
        </mxCell>
        <mxCell id="k_TYnKEjfZYxkEJ2RRev-42" value="Sensoren" style="whiteSpace=wrap;html=1;aspect=fixed;fillColor=#dae8fc;strokeColor=#6c8ebf;" parent="k_TYnKEjfZYxkEJ2RRev-48" vertex="1">
          <mxGeometry x="160" y="112" width="60" height="60" as="geometry" />
        </mxCell>
        <mxCell id="k_TYnKEjfZYxkEJ2RRev-45" value="" style="endArrow=none;html=1;rounded=0;entryX=0.5;entryY=0;entryDx=0;entryDy=0;exitX=0.143;exitY=1;exitDx=0;exitDy=0;exitPerimeter=0;jumpSize=0;" parent="k_TYnKEjfZYxkEJ2RRev-48" source="k_TYnKEjfZYxkEJ2RRev-40" target="k_TYnKEjfZYxkEJ2RRev-39" edge="1">
          <mxGeometry width="50" height="50" relative="1" as="geometry">
            <mxPoint x="-20" y="130" as="sourcePoint" />
            <mxPoint x="30" y="80" as="targetPoint" />
          </mxGeometry>
        </mxCell>
        <mxCell id="k_TYnKEjfZYxkEJ2RRev-46" value="" style="endArrow=none;html=1;rounded=0;entryX=0.5;entryY=0;entryDx=0;entryDy=0;exitX=0.143;exitY=1;exitDx=0;exitDy=0;exitPerimeter=0;jumpSize=0;" parent="k_TYnKEjfZYxkEJ2RRev-48" edge="1">
          <mxGeometry width="50" height="50" relative="1" as="geometry">
            <mxPoint x="114.88" y="101" as="sourcePoint" />
            <mxPoint x="114.88" y="112" as="targetPoint" />
          </mxGeometry>
        </mxCell>
        <mxCell id="k_TYnKEjfZYxkEJ2RRev-47" value="" style="endArrow=none;html=1;rounded=0;entryX=0.5;entryY=0;entryDx=0;entryDy=0;exitX=0.143;exitY=1;exitDx=0;exitDy=0;exitPerimeter=0;jumpSize=0;" parent="k_TYnKEjfZYxkEJ2RRev-48" edge="1">
          <mxGeometry width="50" height="50" relative="1" as="geometry">
            <mxPoint x="189.88" y="101" as="sourcePoint" />
            <mxPoint x="189.88" y="112" as="targetPoint" />
          </mxGeometry>
        </mxCell>
        <mxCell id="k_TYnKEjfZYxkEJ2RRev-50" value="Kamera" style="rounded=0;whiteSpace=wrap;html=1;fillColor=#dae8fc;strokeColor=#6c8ebf;" parent="1" vertex="1">
          <mxGeometry x="699" y="220" width="161" height="30" as="geometry" />
        </mxCell>
        <mxCell id="k_TYnKEjfZYxkEJ2RRev-64" style="edgeStyle=orthogonalEdgeStyle;rounded=0;orthogonalLoop=1;jettySize=auto;html=1;endArrow=oval;endFill=1;" parent="1" source="k_TYnKEjfZYxkEJ2RRev-51" edge="1">
          <mxGeometry relative="1" as="geometry">
            <mxPoint x="639.9999999999998" y="314.9999999999999" as="targetPoint" />
          </mxGeometry>
        </mxCell>
        <mxCell id="k_TYnKEjfZYxkEJ2RRev-51" value="Aktor" style="rounded=0;whiteSpace=wrap;html=1;fillColor=#dae8fc;strokeColor=#6c8ebf;" parent="1" vertex="1">
          <mxGeometry x="699" y="300" width="161" height="30" as="geometry" />
        </mxCell>
        <mxCell id="k_TYnKEjfZYxkEJ2RRev-63" style="edgeStyle=orthogonalEdgeStyle;rounded=0;orthogonalLoop=1;jettySize=auto;html=1;endArrow=oval;endFill=1;" parent="1" source="k_TYnKEjfZYxkEJ2RRev-52" edge="1">
          <mxGeometry relative="1" as="geometry">
            <mxPoint x="640" y="275" as="targetPoint" />
          </mxGeometry>
        </mxCell>
        <mxCell id="k_TYnKEjfZYxkEJ2RRev-52" value="Sensor" style="rounded=0;whiteSpace=wrap;html=1;fillColor=#dae8fc;strokeColor=#6c8ebf;" parent="1" vertex="1">
          <mxGeometry x="699" y="260" width="161" height="30" as="geometry" />
        </mxCell>
        <mxCell id="k_TYnKEjfZYxkEJ2RRev-59" value="" style="group" parent="1" vertex="1" connectable="0">
          <mxGeometry x="699" y="323" width="160" height="110" as="geometry" />
        </mxCell>
        <mxCell id="k_TYnKEjfZYxkEJ2RRev-53" value="" style="rounded=0;whiteSpace=wrap;html=1;" parent="k_TYnKEjfZYxkEJ2RRev-59" vertex="1">
          <mxGeometry y="30" width="160" height="80" as="geometry" />
        </mxCell>
        <mxCell id="k_TYnKEjfZYxkEJ2RRev-54" value="Aktorsystem" style="text;html=1;align=left;verticalAlign=bottom;whiteSpace=wrap;rounded=0;" parent="k_TYnKEjfZYxkEJ2RRev-59" vertex="1">
          <mxGeometry width="120" height="30" as="geometry" />
        </mxCell>
        <mxCell id="k_TYnKEjfZYxkEJ2RRev-58" style="edgeStyle=orthogonalEdgeStyle;rounded=0;orthogonalLoop=1;jettySize=auto;html=1;endArrow=none;endFill=0;" parent="k_TYnKEjfZYxkEJ2RRev-59" source="k_TYnKEjfZYxkEJ2RRev-55" target="k_TYnKEjfZYxkEJ2RRev-56" edge="1">
          <mxGeometry relative="1" as="geometry" />
        </mxCell>
        <mxCell id="k_TYnKEjfZYxkEJ2RRev-68" style="edgeStyle=orthogonalEdgeStyle;rounded=0;orthogonalLoop=1;jettySize=auto;html=1;endArrow=oval;endFill=1;" parent="k_TYnKEjfZYxkEJ2RRev-59" source="k_TYnKEjfZYxkEJ2RRev-55" edge="1">
          <mxGeometry relative="1" as="geometry">
            <mxPoint x="-59" y="70" as="targetPoint" />
          </mxGeometry>
        </mxCell>
        <mxCell id="k_TYnKEjfZYxkEJ2RRev-55" value="Kontroller" style="whiteSpace=wrap;html=1;aspect=fixed;fillColor=#dae8fc;strokeColor=#6c8ebf;" parent="k_TYnKEjfZYxkEJ2RRev-59" vertex="1">
          <mxGeometry x="10" y="40" width="60" height="60" as="geometry" />
        </mxCell>
        <mxCell id="k_TYnKEjfZYxkEJ2RRev-56" value="Aktor" style="whiteSpace=wrap;html=1;aspect=fixed;fillColor=#dae8fc;strokeColor=#6c8ebf;" parent="k_TYnKEjfZYxkEJ2RRev-59" vertex="1">
          <mxGeometry x="90" y="40" width="60" height="60" as="geometry" />
        </mxCell>
        <mxCell id="k_TYnKEjfZYxkEJ2RRev-61" style="edgeStyle=orthogonalEdgeStyle;rounded=0;orthogonalLoop=1;jettySize=auto;html=1;entryX=0;entryY=0.5;entryDx=0;entryDy=0;startArrow=none;startFill=0;endArrow=none;endFill=0;" parent="1" source="k_TYnKEjfZYxkEJ2RRev-26" target="k_TYnKEjfZYxkEJ2RRev-60" edge="1">
          <mxGeometry relative="1" as="geometry" />
        </mxCell>
        <mxCell id="k_TYnKEjfZYxkEJ2RRev-62" style="edgeStyle=orthogonalEdgeStyle;rounded=0;orthogonalLoop=1;jettySize=auto;html=1;entryX=0;entryY=0.5;entryDx=0;entryDy=0;endArrow=none;endFill=0;" parent="1" edge="1">
          <mxGeometry relative="1" as="geometry">
            <Array as="points">
              <mxPoint x="640" y="449" />
              <mxPoint x="640" y="240" />
            </Array>
            <mxPoint x="625.0000000000001" y="449.0114942528736" as="sourcePoint" />
            <mxPoint x="699" y="240" as="targetPoint" />
          </mxGeometry>
        </mxCell>
        <mxCell id="k_TYnKEjfZYxkEJ2RRev-60" value="EA-Karten" style="rounded=0;whiteSpace=wrap;html=1;fillColor=#e1d5e7;strokeColor=#9673a6;horizontal=0;" parent="1" vertex="1">
          <mxGeometry x="585" y="415" width="40" height="74" as="geometry" />
        </mxCell>
        <mxCell id="k_TYnKEjfZYxkEJ2RRev-79" value="Prozessparameter" style="text;html=1;align=left;verticalAlign=middle;whiteSpace=wrap;rounded=0;fontStyle=2;fontSize=10;" parent="1" vertex="1">
          <mxGeometry x="220" y="280" width="110" height="30" as="geometry" />
        </mxCell>
        <mxCell id="8dQNsQy5Hs3WgodB9Y-v-1" value="Modell-Schnittstelle" style="text;html=1;align=left;verticalAlign=bottom;whiteSpace=wrap;rounded=0;horizontal=0;fontStyle=2" parent="1" vertex="1">
          <mxGeometry x="220" y="446" width="120" height="110" as="geometry" />
        </mxCell>
        <mxCell id="Wx91lbG2ehUo55RJbIuE-2" value="" style="rounded=0;whiteSpace=wrap;html=1;fillColor=#d5e8d4;strokeColor=#82b366;" parent="1" vertex="1">
          <mxGeometry x="90" y="226" width="220" height="60" as="geometry" />
        </mxCell>
        <mxCell id="Wx91lbG2ehUo55RJbIuE-3" value="Bedienung und Beobachtung" style="text;html=1;align=left;verticalAlign=bottom;whiteSpace=wrap;rounded=0;" parent="1" vertex="1">
          <mxGeometry x="90" y="196" width="170" height="30" as="geometry" />
        </mxCell>
        <mxCell id="Wx91lbG2ehUo55RJbIuE-4" value="" style="endArrow=none;html=1;rounded=0;exitX=0.75;exitY=0;exitDx=0;exitDy=0;entryX=0.563;entryY=0.06;entryDx=0;entryDy=0;entryPerimeter=0;" parent="1" edge="1">
          <mxGeometry width="50" height="50" relative="1" as="geometry">
            <mxPoint x="199.71" y="330" as="sourcePoint" />
            <mxPoint x="200.0620000000001" y="238.39999999999998" as="targetPoint" />
          </mxGeometry>
        </mxCell>
        <mxCell id="k_TYnKEjfZYxkEJ2RRev-10" value="HMI" style="rounded=0;whiteSpace=wrap;html=1;fillColor=#B9E0A5;strokeColor=#82b366;" parent="1" vertex="1">
          <mxGeometry x="98" y="236" width="204" height="40" as="geometry" />
        </mxCell>
        <mxCell id="Wx91lbG2ehUo55RJbIuE-5" value="Prozessinformationen" style="text;html=1;align=left;verticalAlign=middle;whiteSpace=wrap;rounded=0;fontStyle=2;fontSize=10;" parent="1" vertex="1">
          <mxGeometry x="220" y="293" width="110" height="30" as="geometry" />
        </mxCell>
        <mxCell id="MCu4_P9n3zfeMIbY9nSo-1" value="&lt;span style=&quot;font-size: 12px;&quot;&gt;Anlagen-HMI&lt;/span&gt;" style="rounded=0;whiteSpace=wrap;html=1;fillColor=#B9E0A5;strokeColor=#82b366;fontSize=12;fontStyle=2" vertex="1" parent="1">
          <mxGeometry x="368.5" y="522" width="145" height="40" as="geometry" />
        </mxCell>
      </root>
    </mxGraphModel>
  </diagram>
  <diagram id="TaehnaGcejvfevN3v12T" name="Erweitert">
    <mxGraphModel dx="1195" dy="643" grid="1" gridSize="10" guides="1" tooltips="1" connect="1" arrows="1" fold="1" page="1" pageScale="1" pageWidth="1169" pageHeight="827" math="0" shadow="0">
      <root>
        <mxCell id="0" />
        <mxCell id="1" parent="0" />
        <mxCell id="GyGzZ3g-R6G28wlDeoYN-2" value="" style="rounded=0;whiteSpace=wrap;html=1;fillColor=none;" vertex="1" parent="1">
          <mxGeometry x="40" y="280" width="450" height="170" as="geometry" />
        </mxCell>
        <mxCell id="GyGzZ3g-R6G28wlDeoYN-1" value="" style="rounded=0;whiteSpace=wrap;html=1;fillColor=none;" vertex="1" parent="1">
          <mxGeometry x="40" y="80" width="270" height="150" as="geometry" />
        </mxCell>
        <mxCell id="iarHe-KVVQF3KSnrflt_-5" value="" style="rounded=0;whiteSpace=wrap;html=1;fillColor=#f5f5f5;fontColor=#333333;strokeColor=#666666;" vertex="1" parent="1">
          <mxGeometry x="50" y="110" width="250" height="110" as="geometry" />
        </mxCell>
        <mxCell id="WLe_QcBOIakhTPFxsVKB-1" value="Supervisory-Level" style="text;html=1;align=left;verticalAlign=bottom;whiteSpace=wrap;rounded=0;" vertex="1" parent="1">
          <mxGeometry x="40" y="50" width="130" height="30" as="geometry" />
        </mxCell>
        <mxCell id="d0ftm8MXprZPd9DiqkPS-1" value="Control-Level" style="text;html=1;align=left;verticalAlign=bottom;whiteSpace=wrap;rounded=0;" vertex="1" parent="1">
          <mxGeometry x="40" y="250" width="130" height="30" as="geometry" />
        </mxCell>
        <mxCell id="d0ftm8MXprZPd9DiqkPS-2" value="" style="rounded=0;whiteSpace=wrap;html=1;fillColor=none;" vertex="1" parent="1">
          <mxGeometry x="40" y="500" width="450" height="60" as="geometry" />
        </mxCell>
        <mxCell id="d0ftm8MXprZPd9DiqkPS-3" value="Field-Level" style="text;html=1;align=left;verticalAlign=bottom;whiteSpace=wrap;rounded=0;" vertex="1" parent="1">
          <mxGeometry x="40" y="470" width="130" height="30" as="geometry" />
        </mxCell>
        <mxCell id="iarHe-KVVQF3KSnrflt_-4" style="edgeStyle=orthogonalEdgeStyle;rounded=0;orthogonalLoop=1;jettySize=auto;html=1;endArrow=none;endFill=0;" edge="1" parent="1" source="iarHe-KVVQF3KSnrflt_-1" target="iarHe-KVVQF3KSnrflt_-3">
          <mxGeometry relative="1" as="geometry" />
        </mxCell>
        <mxCell id="iarHe-KVVQF3KSnrflt_-1" value="" style="rounded=0;whiteSpace=wrap;html=1;fillColor=#ffe6cc;strokeColor=#d79b00;" vertex="1" parent="1">
          <mxGeometry x="56" y="120" width="110" height="60" as="geometry" />
        </mxCell>
        <mxCell id="iarHe-KVVQF3KSnrflt_-2" value="Prozessmodell" style="text;html=1;align=center;verticalAlign=middle;whiteSpace=wrap;rounded=0;" vertex="1" parent="1">
          <mxGeometry x="60" y="135" width="110" height="30" as="geometry" />
        </mxCell>
        <mxCell id="iarHe-KVVQF3KSnrflt_-3" value="HMI&lt;div&gt;&lt;font style=&quot;font-size: 8px;&quot;&gt;(Gesamtsystem)&lt;/font&gt;&lt;/div&gt;" style="rounded=0;whiteSpace=wrap;html=1;fillColor=#d5e8d4;strokeColor=#82b366;" vertex="1" parent="1">
          <mxGeometry x="186" y="120" width="110" height="60" as="geometry" />
        </mxCell>
        <mxCell id="iarHe-KVVQF3KSnrflt_-6" value="PC / IPC" style="text;html=1;align=left;verticalAlign=bottom;whiteSpace=wrap;rounded=0;" vertex="1" parent="1">
          <mxGeometry x="50" y="80" width="130" height="30" as="geometry" />
        </mxCell>
        <mxCell id="1CYdiNzxLOeX7tbG5Iz3-3" style="rounded=0;orthogonalLoop=1;jettySize=auto;html=1;entryX=0.5;entryY=1;entryDx=0;entryDy=0;endArrow=none;endFill=0;" edge="1" parent="1" source="dx6PMqEaj2KnP9qZuTjw-7" target="iarHe-KVVQF3KSnrflt_-1">
          <mxGeometry relative="1" as="geometry" />
        </mxCell>
        <mxCell id="dx6PMqEaj2KnP9qZuTjw-7" value="OPC-UA-Client" style="rounded=0;whiteSpace=wrap;html=1;fillColor=#e1d5e7;strokeColor=#9673a6;fontSize=10;" vertex="1" parent="1">
          <mxGeometry x="56" y="190" width="110" height="20" as="geometry" />
        </mxCell>
        <mxCell id="1CYdiNzxLOeX7tbG5Iz3-27" value="" style="group" vertex="1" connectable="0" parent="1">
          <mxGeometry x="50" y="280" width="130" height="160" as="geometry" />
        </mxCell>
        <mxCell id="iarHe-KVVQF3KSnrflt_-7" value="" style="rounded=0;whiteSpace=wrap;html=1;fillColor=#f5f5f5;fontColor=#333333;strokeColor=#666666;" vertex="1" parent="1CYdiNzxLOeX7tbG5Iz3-27">
          <mxGeometry y="30" width="130" height="120" as="geometry" />
        </mxCell>
        <mxCell id="iarHe-KVVQF3KSnrflt_-8" value="SPS" style="text;html=1;align=left;verticalAlign=bottom;whiteSpace=wrap;rounded=0;" vertex="1" parent="1CYdiNzxLOeX7tbG5Iz3-27">
          <mxGeometry width="130" height="30" as="geometry" />
        </mxCell>
        <mxCell id="dx6PMqEaj2KnP9qZuTjw-1" value="Anlagenmodell" style="rounded=0;whiteSpace=wrap;html=1;fillColor=#f8cecc;strokeColor=#b85450;" vertex="1" parent="1CYdiNzxLOeX7tbG5Iz3-27">
          <mxGeometry x="10" y="70" width="110" height="60" as="geometry" />
        </mxCell>
        <mxCell id="1CYdiNzxLOeX7tbG5Iz3-4" style="rounded=0;orthogonalLoop=1;jettySize=auto;html=1;entryX=0.5;entryY=0;entryDx=0;entryDy=0;endArrow=none;endFill=0;" edge="1" parent="1CYdiNzxLOeX7tbG5Iz3-27" source="1CYdiNzxLOeX7tbG5Iz3-2" target="dx6PMqEaj2KnP9qZuTjw-1">
          <mxGeometry relative="1" as="geometry" />
        </mxCell>
        <mxCell id="1CYdiNzxLOeX7tbG5Iz3-2" value="OPC-UA-Server" style="rounded=0;whiteSpace=wrap;html=1;fillColor=#e1d5e7;strokeColor=#9673a6;fontSize=10;" vertex="1" parent="1CYdiNzxLOeX7tbG5Iz3-27">
          <mxGeometry x="10" y="40" width="110" height="20" as="geometry" />
        </mxCell>
        <mxCell id="1CYdiNzxLOeX7tbG5Iz3-6" style="rounded=0;orthogonalLoop=1;jettySize=auto;html=1;endArrow=none;endFill=0;" edge="1" parent="1CYdiNzxLOeX7tbG5Iz3-27" source="1CYdiNzxLOeX7tbG5Iz3-5" target="dx6PMqEaj2KnP9qZuTjw-1">
          <mxGeometry relative="1" as="geometry" />
        </mxCell>
        <mxCell id="1CYdiNzxLOeX7tbG5Iz3-5" value="EA-Karten" style="rounded=0;whiteSpace=wrap;html=1;fillColor=#e1d5e7;strokeColor=#9673a6;fontSize=10;" vertex="1" parent="1CYdiNzxLOeX7tbG5Iz3-27">
          <mxGeometry x="10" y="140" width="110" height="20" as="geometry" />
        </mxCell>
        <mxCell id="1CYdiNzxLOeX7tbG5Iz3-28" value="" style="group" vertex="1" connectable="0" parent="1">
          <mxGeometry x="200" y="280" width="130" height="160" as="geometry" />
        </mxCell>
        <mxCell id="1CYdiNzxLOeX7tbG5Iz3-29" value="" style="rounded=0;whiteSpace=wrap;html=1;fillColor=#f5f5f5;fontColor=#333333;strokeColor=#666666;" vertex="1" parent="1CYdiNzxLOeX7tbG5Iz3-28">
          <mxGeometry y="30" width="130" height="120" as="geometry" />
        </mxCell>
        <mxCell id="1CYdiNzxLOeX7tbG5Iz3-30" value="SPS" style="text;html=1;align=left;verticalAlign=bottom;whiteSpace=wrap;rounded=0;" vertex="1" parent="1CYdiNzxLOeX7tbG5Iz3-28">
          <mxGeometry width="130" height="30" as="geometry" />
        </mxCell>
        <mxCell id="1CYdiNzxLOeX7tbG5Iz3-31" value="Anlagenmodell" style="rounded=0;whiteSpace=wrap;html=1;fillColor=#f8cecc;strokeColor=#b85450;" vertex="1" parent="1CYdiNzxLOeX7tbG5Iz3-28">
          <mxGeometry x="10" y="70" width="110" height="60" as="geometry" />
        </mxCell>
        <mxCell id="1CYdiNzxLOeX7tbG5Iz3-32" style="rounded=0;orthogonalLoop=1;jettySize=auto;html=1;entryX=0.5;entryY=0;entryDx=0;entryDy=0;endArrow=none;endFill=0;" edge="1" parent="1CYdiNzxLOeX7tbG5Iz3-28" source="1CYdiNzxLOeX7tbG5Iz3-33" target="1CYdiNzxLOeX7tbG5Iz3-31">
          <mxGeometry relative="1" as="geometry" />
        </mxCell>
        <mxCell id="ZQEdlpol-WSQUsHuDM3n-5" style="edgeStyle=orthogonalEdgeStyle;rounded=0;orthogonalLoop=1;jettySize=auto;html=1;endArrow=oval;endFill=1;dashed=1;strokeColor=#FF0000;" edge="1" parent="1CYdiNzxLOeX7tbG5Iz3-28" source="1CYdiNzxLOeX7tbG5Iz3-33">
          <mxGeometry relative="1" as="geometry">
            <mxPoint x="65" y="-30" as="targetPoint" />
          </mxGeometry>
        </mxCell>
        <mxCell id="1CYdiNzxLOeX7tbG5Iz3-33" value="OPC-UA-Server" style="rounded=0;whiteSpace=wrap;html=1;fillColor=#e1d5e7;strokeColor=#9673a6;fontSize=10;" vertex="1" parent="1CYdiNzxLOeX7tbG5Iz3-28">
          <mxGeometry x="10" y="40" width="110" height="20" as="geometry" />
        </mxCell>
        <mxCell id="1CYdiNzxLOeX7tbG5Iz3-34" style="rounded=0;orthogonalLoop=1;jettySize=auto;html=1;endArrow=none;endFill=0;" edge="1" parent="1CYdiNzxLOeX7tbG5Iz3-28" source="1CYdiNzxLOeX7tbG5Iz3-35" target="1CYdiNzxLOeX7tbG5Iz3-31">
          <mxGeometry relative="1" as="geometry" />
        </mxCell>
        <mxCell id="1CYdiNzxLOeX7tbG5Iz3-35" value="EA-Karten" style="rounded=0;whiteSpace=wrap;html=1;fillColor=#e1d5e7;strokeColor=#9673a6;fontSize=10;" vertex="1" parent="1CYdiNzxLOeX7tbG5Iz3-28">
          <mxGeometry x="10" y="140" width="110" height="20" as="geometry" />
        </mxCell>
        <mxCell id="1CYdiNzxLOeX7tbG5Iz3-36" value="" style="group" vertex="1" connectable="0" parent="1">
          <mxGeometry x="350" y="280" width="130" height="160" as="geometry" />
        </mxCell>
        <mxCell id="1CYdiNzxLOeX7tbG5Iz3-37" value="" style="rounded=0;whiteSpace=wrap;html=1;fillColor=#f5f5f5;fontColor=#333333;strokeColor=#666666;" vertex="1" parent="1CYdiNzxLOeX7tbG5Iz3-36">
          <mxGeometry y="30" width="130" height="120" as="geometry" />
        </mxCell>
        <mxCell id="1CYdiNzxLOeX7tbG5Iz3-38" value="SPS" style="text;html=1;align=left;verticalAlign=bottom;whiteSpace=wrap;rounded=0;" vertex="1" parent="1CYdiNzxLOeX7tbG5Iz3-36">
          <mxGeometry width="130" height="30" as="geometry" />
        </mxCell>
        <mxCell id="1CYdiNzxLOeX7tbG5Iz3-39" value="Anlagenmodell" style="rounded=0;whiteSpace=wrap;html=1;fillColor=#f8cecc;strokeColor=#b85450;" vertex="1" parent="1CYdiNzxLOeX7tbG5Iz3-36">
          <mxGeometry x="10" y="70" width="110" height="60" as="geometry" />
        </mxCell>
        <mxCell id="1CYdiNzxLOeX7tbG5Iz3-40" style="rounded=0;orthogonalLoop=1;jettySize=auto;html=1;entryX=0.5;entryY=0;entryDx=0;entryDy=0;endArrow=none;endFill=0;" edge="1" parent="1CYdiNzxLOeX7tbG5Iz3-36" source="1CYdiNzxLOeX7tbG5Iz3-41" target="1CYdiNzxLOeX7tbG5Iz3-39">
          <mxGeometry relative="1" as="geometry" />
        </mxCell>
        <mxCell id="1CYdiNzxLOeX7tbG5Iz3-41" value="OPC-UA-Server" style="rounded=0;whiteSpace=wrap;html=1;fillColor=#e1d5e7;strokeColor=#9673a6;fontSize=10;" vertex="1" parent="1CYdiNzxLOeX7tbG5Iz3-36">
          <mxGeometry x="10" y="40" width="110" height="20" as="geometry" />
        </mxCell>
        <mxCell id="1CYdiNzxLOeX7tbG5Iz3-42" style="rounded=0;orthogonalLoop=1;jettySize=auto;html=1;endArrow=none;endFill=0;" edge="1" parent="1CYdiNzxLOeX7tbG5Iz3-36" source="1CYdiNzxLOeX7tbG5Iz3-43" target="1CYdiNzxLOeX7tbG5Iz3-39">
          <mxGeometry relative="1" as="geometry" />
        </mxCell>
        <mxCell id="1CYdiNzxLOeX7tbG5Iz3-43" value="EA-Karten" style="rounded=0;whiteSpace=wrap;html=1;fillColor=#e1d5e7;strokeColor=#9673a6;fontSize=10;" vertex="1" parent="1CYdiNzxLOeX7tbG5Iz3-36">
          <mxGeometry x="10" y="140" width="110" height="20" as="geometry" />
        </mxCell>
        <mxCell id="ZQEdlpol-WSQUsHuDM3n-1" value="Anlage" style="rounded=0;whiteSpace=wrap;html=1;fillColor=#dae8fc;strokeColor=#6c8ebf;" vertex="1" parent="1">
          <mxGeometry x="60" y="510" width="110" height="40" as="geometry" />
        </mxCell>
        <mxCell id="ZQEdlpol-WSQUsHuDM3n-2" value="Anlage" style="rounded=0;whiteSpace=wrap;html=1;fillColor=#dae8fc;strokeColor=#6c8ebf;" vertex="1" parent="1">
          <mxGeometry x="210" y="510" width="110" height="40" as="geometry" />
        </mxCell>
        <mxCell id="ZQEdlpol-WSQUsHuDM3n-3" value="Anlage" style="rounded=0;whiteSpace=wrap;html=1;fillColor=#dae8fc;strokeColor=#6c8ebf;" vertex="1" parent="1">
          <mxGeometry x="360" y="510" width="110" height="40" as="geometry" />
        </mxCell>
        <mxCell id="ZQEdlpol-WSQUsHuDM3n-4" style="edgeStyle=orthogonalEdgeStyle;rounded=0;orthogonalLoop=1;jettySize=auto;html=1;entryX=0.5;entryY=0;entryDx=0;entryDy=0;fillColor=#f8cecc;strokeColor=#FF0000;dashed=1;endArrow=none;endFill=0;" edge="1" parent="1" source="dx6PMqEaj2KnP9qZuTjw-7" target="1CYdiNzxLOeX7tbG5Iz3-41">
          <mxGeometry relative="1" as="geometry">
            <Array as="points">
              <mxPoint x="111" y="250" />
              <mxPoint x="415" y="250" />
            </Array>
          </mxGeometry>
        </mxCell>
        <mxCell id="ZQEdlpol-WSQUsHuDM3n-9" style="rounded=0;orthogonalLoop=1;jettySize=auto;html=1;exitX=0.818;exitY=0;exitDx=0;exitDy=0;endArrow=oval;endFill=1;dashed=1;strokeColor=#FF0000;exitPerimeter=0;" edge="1" parent="1" source="1CYdiNzxLOeX7tbG5Iz3-2">
          <mxGeometry relative="1" as="geometry">
            <mxPoint x="139.5" y="320" as="sourcePoint" />
            <mxPoint x="150" y="250" as="targetPoint" />
          </mxGeometry>
        </mxCell>
        <mxCell id="ZQEdlpol-WSQUsHuDM3n-11" style="edgeStyle=orthogonalEdgeStyle;rounded=0;orthogonalLoop=1;jettySize=auto;html=1;entryX=0.5;entryY=0;entryDx=0;entryDy=0;endArrow=none;endFill=0;strokeColor=#FF0000;" edge="1" parent="1" source="1CYdiNzxLOeX7tbG5Iz3-5" target="ZQEdlpol-WSQUsHuDM3n-1">
          <mxGeometry relative="1" as="geometry" />
        </mxCell>
        <mxCell id="ZQEdlpol-WSQUsHuDM3n-12" style="edgeStyle=orthogonalEdgeStyle;rounded=0;orthogonalLoop=1;jettySize=auto;html=1;entryX=0.5;entryY=0;entryDx=0;entryDy=0;endArrow=none;endFill=0;strokeColor=#FF0000;" edge="1" parent="1" source="1CYdiNzxLOeX7tbG5Iz3-35" target="ZQEdlpol-WSQUsHuDM3n-2">
          <mxGeometry relative="1" as="geometry" />
        </mxCell>
        <mxCell id="ZQEdlpol-WSQUsHuDM3n-13" style="edgeStyle=orthogonalEdgeStyle;rounded=0;orthogonalLoop=1;jettySize=auto;html=1;endArrow=none;endFill=0;strokeColor=#FF0000;" edge="1" parent="1" source="1CYdiNzxLOeX7tbG5Iz3-43" target="ZQEdlpol-WSQUsHuDM3n-3">
          <mxGeometry relative="1" as="geometry" />
        </mxCell>
      </root>
    </mxGraphModel>
  </diagram>
</mxfile>
